<svg xmlns="http://www.w3.org/2000/svg" viewBox="0 0 200 200" width="200" height="200">
  <defs>
    <!-- Gradient principal violet/rose -->
    <linearGradient id="mainGradient" x1="0%" y1="0%" x2="100%" y2="100%">
      <stop offset="0%" style="stop-color:#8B5CF6"/>
      <stop offset="50%" style="stop-color:#A855F7"/>
      <stop offset="100%" style="stop-color:#EC4899"/>
    </linearGradient>

    <!-- Gradient pour le X central -->
    <linearGradient id="xGradient" x1="0%" y1="0%" x2="100%" y2="100%">
      <stop offset="0%" style="stop-color:#F0ABFC"/>
      <stop offset="100%" style="stop-color:#FFFFFF"/>
    </linearGradient>

    <!-- Gradient pour les fleches rotatives -->
    <linearGradient id="arrowGradient" x1="0%" y1="0%" x2="100%" y2="0%">
      <stop offset="0%" style="stop-color:#22D3EE"/>
      <stop offset="100%" style="stop-color:#A855F7"/>
    </linearGradient>

    <!-- Ombre portee -->
    <filter id="glow" x="-50%" y="-50%" width="200%" height="200%">
      <feGaussianBlur stdDeviation="2" result="coloredBlur"/>
      <feMerge>
        <feMergeNode in="coloredBlur"/>
        <feMergeNode in="SourceGraphic"/>
      </feMerge>
    </filter>
  </defs>

  <!-- Cercle externe avec bordure gradient -->
  <circle cx="100" cy="100" r="90" fill="none" stroke="url(#mainGradient)" stroke-width="6" opacity="0.95"/>

  <!-- Cercle interne -->
  <circle cx="100" cy="100" r="75" fill="none" stroke="url(#mainGradient)" stroke-width="2" opacity="0.5"/>

  <!-- Arc de cercle (trace de rotation) - position fixe -->
  <circle cx="100" cy="100" r="82" fill="none" stroke="url(#arrowGradient)" stroke-width="3" stroke-dasharray="50 90 30 90" stroke-linecap="round" opacity="0.8"/>

  <!-- Fleches de rotation (3 fleches fixes) -->
  <path d="M100 18 L110 32 L100 27 L90 32 Z" fill="url(#arrowGradient)" filter="url(#glow)"/>
  <path d="M100 18 L110 32 L100 27 L90 32 Z" fill="url(#arrowGradient)" filter="url(#glow)" transform="rotate(120 100 100)"/>
  <path d="M100 18 L110 32 L100 27 L90 32 Z" fill="url(#arrowGradient)" filter="url(#glow)" transform="rotate(240 100 100)"/>

  <!-- X Central avec effet glow -->
  <g filter="url(#glow)">
    <!-- Premiere barre du X -->
    <rect x="58" y="94" width="84" height="12" rx="6" fill="url(#xGradient)" transform="rotate(45 100 100)"/>
    <!-- Deuxieme barre du X -->
    <rect x="58" y="94" width="84" height="12" rx="6" fill="url(#xGradient)" transform="rotate(-45 100 100)"/>
  </g>

  <!-- Points decoratifs (8 SC peripheriques) -->
  <circle cx="100" cy="20" r="5" fill="#22D3EE" filter="url(#glow)"/>
  <circle cx="156" cy="44" r="5" fill="#A855F7" filter="url(#glow)"/>
  <circle cx="180" cy="100" r="5" fill="#EC4899" filter="url(#glow)"/>
  <circle cx="156" cy="156" r="5" fill="#F472B6" filter="url(#glow)"/>
  <circle cx="100" cy="180" r="5" fill="#22D3EE" filter="url(#glow)"/>
  <circle cx="44" cy="156" r="5" fill="#A855F7" filter="url(#glow)"/>
  <circle cx="20" cy="100" r="5" fill="#EC4899" filter="url(#glow)"/>
  <circle cx="44" cy="44" r="5" fill="#F472B6" filter="url(#glow)"/>
</svg>
